<?xml version="1.0" encoding="iso-8859-1"?>
<!-- Generator: Adobe Illustrator 19.0.0, SVG Export Plug-In . SVG Version: 6.00 Build 0)  -->
<svg version="1.1" id="Layer_1" xmlns="http://www.w3.org/2000/svg" xmlns:xlink="http://www.w3.org/1999/xlink" x="0px" y="0px"
	 viewBox="0 0 512 512" style="enable-background:new 0 0 512 512;" xml:space="preserve">
<path style="fill:#F95632;" d="M252.101,93.711c-92.104,0-166.769,74.665-166.769,166.766c0,92.109,74.668,166.779,166.769,166.779
	s166.771-74.67,166.771-166.779C418.87,168.376,344.202,93.711,252.101,93.711z M252.101,357.207
	c-53.417,0-96.73-43.305-96.73-96.73c0-53.409,43.313-96.719,96.73-96.719c53.412,0,96.73,43.31,96.73,96.719
	C348.831,313.902,305.513,357.207,252.101,357.207z"/>
<polygon style="fill:#C1CED4;" points="374.326,482.627 304.182,315.361 471.442,385.505 401.303,412.488 "/>
<path style="fill:#BC452A;" d="M324.954,324.07c-3.717,4.255-7.795,8.184-12.198,11.733l27.715,66.094
	c20.398-12.774,37.824-29.827,51.036-49.915L324.954,324.07z"/>
<path style="fill:#2D110A;" d="M252.137,397.427c-3.52,0-7.04-0.133-10.506-0.397l0.786-10.363c3.208,0.241,6.464,0.361,9.684,0.361
	l0.553-0.003v10.399l-0.504,0.005C252.145,397.427,252.145,397.427,252.137,397.427z M263.145,396.987l-0.824-10.365
	c3.2-0.256,6.438-0.64,9.615-1.139l1.618,10.273C270.116,396.298,266.611,396.713,263.145,396.987z M231.212,395.843
	c-3.443-0.53-6.904-1.195-10.294-1.987l2.358-10.127c3.128,0.732,6.331,1.347,9.513,1.836L231.212,395.843z M283.843,393.728
	l-2.404-10.115c3.141-0.748,6.277-1.626,9.334-2.601l3.174,9.897C290.637,391.974,287.237,392.922,283.843,393.728z
	 M210.801,391.089c-3.323-1.052-6.648-2.248-9.876-3.548l3.886-9.649c2.985,1.206,6.054,2.309,9.126,3.277L210.801,391.089z
	 M303.798,387.331l-3.927-9.633c2.98-1.213,5.944-2.557,8.814-3.996l4.657,9.295C310.236,384.555,307.023,386.012,303.798,387.331z
	 M191.35,383.24c-3.121-1.544-6.226-3.236-9.219-5.02l5.322-8.932c2.77,1.651,5.632,3.21,8.512,4.639L191.35,383.24z
	 M322.522,377.948l-5.356-8.911c2.76-1.654,5.484-3.443,8.11-5.304l6.019,8.481C328.461,374.223,325.507,376.159,322.522,377.948z
	 M173.332,372.518c-2.839-2.002-5.647-4.142-8.333-6.362l6.612-8.023c2.491,2.051,5.084,4.035,7.711,5.883L173.332,372.518z
	 M339.602,365.821l-6.648-7.995c2.47-2.053,4.895-4.232,7.209-6.474l7.24,7.462C344.904,361.244,342.277,363.602,339.602,365.821z
	 M157.171,359.176c-2.506-2.409-4.954-4.951-7.273-7.549l7.757-6.925c2.145,2.404,4.411,4.751,6.725,6.981L157.171,359.176z
	 M354.652,351.24l-7.785-6.892c2.132-2.409,4.201-4.936,6.144-7.501l8.287,6.282C359.196,345.905,356.961,348.636,354.652,351.24z
	 M143.219,343.542c-2.115-2.767-4.15-5.652-6.042-8.563l8.724-5.663c1.746,2.691,3.625,5.35,5.586,7.916L143.219,343.542z
	 M367.311,334.541l-8.748-5.629c1.754-2.719,3.412-5.524,4.936-8.343l9.149,4.941C371,328.563,369.201,331.599,367.311,334.541z
	 M131.809,325.983c-1.669-3.059-3.241-6.218-4.664-9.382l9.482-4.273c1.321,2.929,2.77,5.842,4.314,8.673L131.809,325.983z
	 M377.283,316.093l-9.505-4.232c1.316-2.944,2.524-5.97,3.599-9.001l9.797,3.479C380.012,309.619,378.698,312.904,377.283,316.093z
	 M123.218,306.883c-1.18-3.279-2.248-6.646-3.172-9.999l10.028-2.755c0.852,3.092,1.838,6.198,2.929,9.229L123.218,306.883z
	 M384.302,296.33l-10.035-2.716c0.84-3.11,1.569-6.287,2.171-9.441l10.214,1.935C386.002,289.528,385.216,292.961,384.302,296.33z
	 M117.655,286.674c-0.663-3.423-1.201-6.909-1.597-10.365l10.33-1.185c0.366,3.192,0.863,6.408,1.477,9.567L117.655,286.674z
	 M388.204,275.745l-10.33-1.147c0.353-3.197,0.586-6.451,0.699-9.664l10.394,0.361C388.846,268.769,388.588,272.292,388.204,275.745
	z M115.256,265.861c-0.067-1.782-0.105-3.579-0.105-5.384c0-1.705,0.033-3.405,0.095-5.094l10.391,0.379
	c-0.056,1.567-0.087,3.139-0.087,4.716c0,1.672,0.033,3.333,0.097,4.982L115.256,265.861z M378.542,255.232
	c-0.131-3.215-0.384-6.464-0.763-9.656l10.327-1.213c0.407,3.453,0.686,6.971,0.822,10.45L378.542,255.232z M126.359,246.103
	l-10.332-1.172c0.389-3.456,0.922-6.943,1.574-10.36l10.212,1.953C127.212,239.688,126.72,242.911,126.359,246.103z
	 M376.279,236.001c-0.614-3.149-1.362-6.321-2.222-9.428l10.02-2.775c0.929,3.361,1.743,6.797,2.412,10.204L376.279,236.001z
	 M130.002,227.09l-10.03-2.739c0.916-3.354,1.976-6.72,3.149-10.002l9.792,3.5C131.83,220.882,130.847,223.992,130.002,227.09z
	 M371.11,217.354c-1.096-3.026-2.322-6.039-3.648-8.963l9.475-4.291c1.436,3.167,2.762,6.438,3.948,9.708L371.11,217.354z
	 M136.527,208.858l-9.492-4.252c1.428-3.192,2.995-6.356,4.654-9.411l9.137,4.969C139.292,202.982,137.848,205.908,136.527,208.858z
	 M363.139,199.726c-1.544-2.816-3.22-5.612-4.979-8.307l8.707-5.686c1.907,2.918,3.722,5.944,5.391,8.993L363.139,199.726z
	 M145.774,191.834l-8.73-5.652c1.892-2.918,3.919-5.801,6.031-8.579l8.276,6.295C149.396,186.465,147.52,189.135,145.774,191.834z
	 M352.561,183.521c-1.958-2.552-4.037-5.059-6.188-7.462l7.744-6.938c2.324,2.596,4.575,5.312,6.692,8.069L352.561,183.521z
	 M157.509,176.42l-7.77-6.912c2.309-2.593,4.749-5.138,7.26-7.562l7.222,7.48C161.905,171.666,159.647,174.019,157.509,176.42z
	 M339.633,169.093c-2.322-2.225-4.762-4.388-7.25-6.438l6.605-8.028c2.693,2.214,5.327,4.557,7.839,6.958L339.633,169.093z
	 M171.448,162.967l-6.63-8.008c2.691-2.227,5.491-4.372,8.323-6.377l6.001,8.497C176.522,158.925,173.934,160.909,171.448,162.967z
	 M324.664,156.792c-2.637-1.848-5.379-3.62-8.146-5.261l5.302-8.942c2.995,1.774,5.96,3.689,8.812,5.686L324.664,156.792z
	 M187.256,151.79l-5.335-8.929c2.988-1.784,6.08-3.476,9.193-5.03l4.639,9.308C192.876,148.575,190.019,150.136,187.256,151.79z
	 M307.996,146.916c-2.877-1.421-5.855-2.752-8.852-3.95l3.871-9.654c3.241,1.295,6.464,2.739,9.585,4.278L307.996,146.916z
	 M204.572,143.158l-3.904-9.633c3.228-1.313,6.546-2.511,9.864-3.564l3.154,9.907C210.621,140.844,207.56,141.949,204.572,143.158z
	 M290.01,139.707c-3.064-0.96-6.211-1.815-9.344-2.54l2.34-10.132c3.395,0.781,6.799,1.708,10.12,2.752L290.01,139.707z
	 M223.022,137.288l-2.383-10.12c3.384-0.801,6.851-1.469,10.291-2.007l1.597,10.276
	C229.343,135.931,226.148,136.556,223.022,137.288z M271.15,135.357c-3.172-0.479-6.408-0.842-9.631-1.08l0.765-10.371
	c3.487,0.259,6.989,0.65,10.419,1.172L271.15,135.357z M242.148,134.318l-0.806-10.368c3.464-0.266,6.986-0.41,10.47-0.417
	l0.02,10.399C248.609,133.937,245.353,134.067,242.148,134.318z"/>
<g>
	<path style="fill:#2E3133;" d="M401.147,504.934l-80.059-190.922L512,394.074l-80.056,30.799L401.147,504.934z M340.503,333.435
		l60.229,143.616l23.16-60.224l60.224-23.165L340.503,333.435z"/>
	
		<rect x="416.964" y="442.115" transform="matrix(-0.7072 -0.7071 0.7071 -0.7072 459.3794 1084.8898)" style="fill:#2E3133;" width="74.782" height="10.397"/>
	<path style="fill:#2E3133;" d="M260.621,316.897h-17.075c-8.215,0-15.946-3.187-21.783-8.978
		c-5.824-5.926-9.011-13.668-9.019-21.844l10.399-0.015c0.003,5.445,2.135,10.601,5.996,14.525c3.825,3.794,8.96,5.916,14.41,5.916
		h17.075c5.42,0,10.56-2.127,14.484-5.978c3.819-3.881,5.955-9.032,5.955-14.454c0-5.432-2.125-10.547-5.988-14.4
		c-3.894-3.866-9.037-5.998-14.459-5.998h-17.068c-8.228,0-15.967-3.195-21.788-9.004c-5.821-5.883-9.014-13.614-9.014-21.796
		c0.01-8.228,3.2-15.967,8.993-21.798c5.896-5.816,13.627-9.004,21.809-9.004h17.075c8.128,0,15.857,3.18,21.765,8.947
		c5.873,5.919,9.075,13.66,9.075,21.857h-10.401c0-5.432-2.127-10.573-5.998-14.469c-3.894-3.804-9.047-5.934-14.444-5.934h-17.075
		c-5.43,0-10.568,2.122-14.467,5.967c-3.807,3.84-5.934,8.98-5.937,14.441c0,5.422,2.122,10.555,5.98,14.454
		c3.84,3.825,8.97,5.944,14.423,5.944h17.068c8.184,0,15.928,3.2,21.796,9.024c5.839,5.827,9.052,13.558,9.052,21.77
		c0,8.172-3.2,15.916-9.009,21.814C276.516,313.715,268.785,316.897,260.621,316.897z"/>
	<rect x="246.886" y="188.774" style="fill:#2E3133;" width="10.399" height="143.411"/>
	<path style="fill:#2E3133;" d="M323.295,73.057c-18.196,0-33.001-14.799-33.001-32.993s14.802-32.998,33.001-32.998
		c18.189,0,32.988,14.804,32.988,32.998S341.486,73.057,323.295,73.057z M323.295,17.464c-12.465,0-22.602,10.14-22.602,22.602
		s10.138,22.595,22.602,22.595c12.454,0,22.589-10.132,22.589-22.595S335.749,17.464,323.295,17.464z"/>
	<path style="fill:#2E3133;" d="M304.182,502.72c-11.082,0-20.093-9.011-20.093-20.093c0-11.075,9.011-20.093,20.093-20.093
		c11.075,0,20.091,9.016,20.091,20.093C324.273,493.709,315.256,502.72,304.182,502.72z M304.182,472.932
		c-5.348,0-9.692,4.355-9.692,9.695c0,5.348,4.344,9.695,9.692,9.695c5.343,0,9.692-4.347,9.692-9.695
		C313.874,477.286,309.524,472.932,304.182,472.932z"/>
</g>
<g>
	<circle style="fill:#63D1DB;" cx="214.221" cy="100.096" r="16.681"/>
	<path style="fill:#63D1DB;" d="M54.126,332.198c0,5.517-4.488,10.004-10.01,10.004c-5.527,0-10.01-4.488-10.01-10.004
		c0-5.532,4.48-10.012,10.01-10.012C49.638,322.186,54.126,326.666,54.126,332.198z"/>
	<circle style="fill:#63D1DB;" cx="97.114" cy="79.462" r="48.364"/>
</g>
<path style="fill:#2E3133;" d="M44.116,446.449C19.791,446.449,0,426.655,0,402.332c0-24.325,19.791-44.119,44.114-44.119
	c24.328,0,44.119,19.794,44.119,44.119C88.236,426.655,68.444,446.449,44.116,446.449z M44.116,368.612
	c-18.593,0-33.715,15.124-33.715,33.72c0,18.591,15.124,33.715,33.715,33.715c18.593,0,33.72-15.125,33.72-33.715
	C77.837,383.736,62.71,368.612,44.116,368.612z"/>
<g>
	<path style="fill:#63D1DB;" d="M145.766,427.256c0,8.612-6.976,15.59-15.593,15.59c-8.614,0-15.601-6.979-15.601-15.59
		c0-8.617,6.986-15.606,15.601-15.606C138.79,411.653,145.766,418.639,145.766,427.256z"/>
	<circle style="fill:#63D1DB;" cx="427.546" cy="138.778" r="63.094"/>
</g>
<g>
	<path style="fill:#61462B;" d="M214.221,116.79c9.208,0,16.681-7.473,16.681-16.684c0-1.71-0.261-3.359-0.74-4.91
		c-11.185,1.469-22.013,4.042-32.384,7.616C199.073,110.733,205.932,116.79,214.221,116.79z"/>
	<path style="fill:#61462B;" d="M406.881,198.395c-9.428-23.478-24.005-44.332-42.388-61.112c-0.013,0.499-0.038,0.993-0.038,1.495
		C364.454,166.385,382.188,189.834,406.881,198.395z"/>
</g>
<path style="fill:#2D110A;" d="M340.503,333.435l49.541,20.774c1.976-2.906,3.845-5.885,5.64-8.914l-65.654-27.533
	c-1.531,2.081-3.151,4.086-4.841,6.031l28.797,68.675c2.865-2.217,5.658-4.524,8.374-6.917L340.503,333.435z"/>
<g>
</g>
<g>
</g>
<g>
</g>
<g>
</g>
<g>
</g>
<g>
</g>
<g>
</g>
<g>
</g>
<g>
</g>
<g>
</g>
<g>
</g>
<g>
</g>
<g>
</g>
<g>
</g>
<g>
</g>
</svg>
