<?xml version="1.0" encoding="iso-8859-1"?>
<!-- Generator: Adobe Illustrator 19.0.0, SVG Export Plug-In . SVG Version: 6.00 Build 0)  -->
<svg version="1.1" id="Layer_1" xmlns="http://www.w3.org/2000/svg" xmlns:xlink="http://www.w3.org/1999/xlink" x="0px" y="0px"
	 viewBox="0 0 512.003 512.003" style="enable-background:new 0 0 512.003 512.003;" xml:space="preserve">
<path style="fill:#C1CED4;" d="M360.42,92.529H150.7c-14.843,0-26.975,12.132-26.975,26.975v365.53
	c0,14.838,12.132,26.97,26.975,26.97h209.72c14.835,0,26.967-12.132,26.967-26.97V119.501
	C387.387,104.658,375.255,92.529,360.42,92.529z M357.422,444.58H153.687V159.946h203.735V444.58z"/>
<path style="fill:#23282A;" d="M363.049,450.204H148.06V154.319h214.989V450.204z M159.314,438.953h192.484V165.571H159.314V438.953
	z"/>
<rect x="218.115" y="474.906" style="fill:#2E3133;" width="74.906" height="11.254"/>
<polygon style="fill:#F95632;" points="321.679,51.648 321.679,243.292 113.116,243.292 55.345,301.041 55.345,243.292 
	20.26,243.292 20.26,51.648 "/>
<path style="fill:#BC452A;" d="M123.725,119.501v123.791h29.965v-83.346h167.992V92.529H150.7
	C135.857,92.529,123.725,104.658,123.725,119.501z"/>
<polygon style="fill:#230D08;" points="148.06,243.292 159.314,243.292 159.314,165.571 321.679,165.571 321.679,154.319 
	148.06,154.319 "/>
<g>
	<rect x="284.803" y="30.436" style="fill:#2E3133;" width="44.454" height="11.254"/>
	<rect x="284.803" y="49.597" style="fill:#2E3133;" width="133.376" height="11.254"/>
	<rect x="284.803" y="68.769" style="fill:#2E3133;" width="133.376" height="11.254"/>
	<rect x="284.803" y="87.936" style="fill:#2E3133;" width="85.737" height="11.254"/>
	<path style="fill:#2E3133;" d="M465.014,129.618H237.952V0h227.062L465.014,129.618L465.014,129.618z M249.203,118.367H453.76
		V11.254H249.203V118.367z"/>
</g>
<path style="fill:#23282A;" d="M387.387,119.501c0-0.381-0.044-0.755-0.056-1.134H249.203V92.529h-11.254v37.092h149.437
	L387.387,119.501L387.387,119.501z"/>
<rect x="223.849" y="284.032" style="fill:#63D1DB;" width="278.144" height="136.909"/>
<rect x="357.43" y="284.032" style="fill:#4BA9B6;" width="29.965" height="136.909"/>
<rect x="351.798" y="284.032" style="fill:#0E2124;" width="11.254" height="136.909"/>
<g>
	<rect x="284.291" y="328.192" style="fill:#FFFFFF;" width="18.557" height="18.563"/>
	<rect x="312.118" y="328.192" style="fill:#FFFFFF;" width="18.557" height="18.563"/>
	<rect x="339.971" y="328.192" style="fill:#FFFFFF;" width="18.55" height="18.563"/>
	<rect x="367.798" y="328.192" style="fill:#FFFFFF;" width="18.565" height="18.563"/>
	<rect x="395.625" y="328.192" style="fill:#FFFFFF;" width="18.563" height="18.563"/>
	<rect x="423.478" y="328.192" style="fill:#FFFFFF;" width="18.557" height="18.563"/>
	<rect x="451.305" y="328.192" style="fill:#FFFFFF;" width="18.54" height="18.563"/>
	<rect x="270.364" y="356.019" style="fill:#FFFFFF;" width="18.563" height="18.563"/>
	<rect x="298.217" y="356.019" style="fill:#FFFFFF;" width="18.55" height="18.563"/>
	<rect x="326.044" y="356.019" style="fill:#FFFFFF;" width="18.563" height="18.563"/>
	<rect x="353.871" y="356.019" style="fill:#FFFFFF;" width="18.557" height="18.563"/>
	<rect x="381.724" y="356.019" style="fill:#FFFFFF;" width="18.547" height="18.563"/>
	<rect x="409.551" y="356.019" style="fill:#FFFFFF;" width="18.557" height="18.563"/>
	<rect x="437.379" y="356.019" style="fill:#FFFFFF;" width="18.55" height="18.563"/>
	<rect x="465.206" y="356.019" style="fill:#FFFFFF;" width="18.555" height="18.563"/>
	<rect x="284.291" y="383.872" style="fill:#FFFFFF;" width="18.557" height="18.552"/>
	<rect x="312.118" y="383.872" style="fill:#FFFFFF;" width="129.905" height="18.552"/>
	<rect x="451.305" y="383.872" style="fill:#FFFFFF;" width="18.54" height="18.552"/>
	<rect x="47.081" y="99.197" style="fill:#FFFFFF;" width="153.567" height="11.254"/>
	<rect x="47.081" y="118.374" style="fill:#FFFFFF;" width="153.567" height="11.254"/>
	<rect x="47.081" y="137.531" style="fill:#FFFFFF;" width="41.861" height="11.254"/>
</g>
<g>
	<rect x="10.01" y="409.062" style="fill:#2E3133;" width="41.539" height="11.254"/>
	<rect x="10.01" y="389.914" style="fill:#2E3133;" width="97.792" height="11.254"/>
	<rect x="10.01" y="370.739" style="fill:#2E3133;" width="73.326" height="11.254"/>
</g>
<g>
	<polygon style="fill:#230D08;" points="321.679,118.367 249.203,118.367 249.203,51.648 237.952,51.648 237.952,129.618 
		321.679,129.618 	"/>
	<rect x="284.803" y="68.769" style="fill:#230D08;" width="36.887" height="11.254"/>
	<rect x="284.803" y="51.661" style="fill:#230D08;" width="36.887" height="9.201"/>
	<rect x="284.803" y="87.936" style="fill:#230D08;" width="36.887" height="11.254"/>
</g>
<g>
</g>
<g>
</g>
<g>
</g>
<g>
</g>
<g>
</g>
<g>
</g>
<g>
</g>
<g>
</g>
<g>
</g>
<g>
</g>
<g>
</g>
<g>
</g>
<g>
</g>
<g>
</g>
<g>
</g>
</svg>
