<?xml version="1.0" encoding="iso-8859-1"?>
<!-- Generator: Adobe Illustrator 19.0.0, SVG Export Plug-In . SVG Version: 6.00 Build 0)  -->
<svg version="1.1" id="Layer_1" xmlns="http://www.w3.org/2000/svg" xmlns:xlink="http://www.w3.org/1999/xlink" x="0px" y="0px"
	 viewBox="0 0 512 512" style="enable-background:new 0 0 512 512;" xml:space="preserve">
<path style="fill:#63D1DB;" d="M26.675,371.784C66.529,454.733,151.322,512,249.492,512c105.608,0,195.681-66.276,231.037-159.478
	C452.191,255.24,362.422,184.12,255.99,184.12C142.63,184.12,48.131,264.748,26.675,371.784z"/>
<g>
	<path style="fill:#FFFFFF;" d="M377.549,331.599l-11.54,2.422l20.59,38.904l28.273,30.083l13.786-0.968l11.853,19.551
		c-34.888,42.517-83.717,73.201-139.543,84.997l-22.285-55.025l7.316-22.707l-21.069-11.361l-51.873,8.937l-27.96-29.202
		l4.47-14.976l-4.47-24.333l39.432-52.316l19.922,5.181l46.185-2.309l25.748,11.54l18.447-9.229l25.539,10.273l18.839-9.121
		l-3.907-14.3L355.1,297.16l-11.021-14.935l-7.145,1.723l-2.312,6.367l-13.384,5.171l-16.74-23.675l-22.52-3.763l-25.398,15.9
		l-30.917,2.867l-12.608-1.124l7.583-22.815l18.893,3.159l8.174-4.954l0.315-16.118l31.91-16.425l8.11,4.582l37.458-6.249
		l-2.908-22.111l-38.467,8l-14.1-18.729l9.219-8.776l8.415-8c84.723,14.021,154.698,71.657,186.084,149.028l-2.662-0.195
		l-31.091-2.266l-4.15,18.092l23.552,2.266l18.506,14.968c-7.826,18.985-17.948,36.756-30.031,53.018l-37.251-42.179l-5.622-16.049
		L377.549,331.599z"/>
	<path style="fill:#FFFFFF;" d="M134.149,320.397l-2.831,4.47l8.138,8.673l-7.521,12.132l-17.318-1.746l-19.935,35.325
		l21.967,26.739l-19.51,20.925l-30.277,4.357c-16.156-17.654-29.74-37.683-40.207-59.497c0.632-3.059,1.321-6.149,2.048-9.203
		c0.036-0.072,0.036-0.108,0.036-0.143c2.906-11.215,6.441-22.149,10.632-32.773c0.146-0.445,0.317-0.886,0.522-1.329
		c13.793-34.785,34.176-66.248,59.571-92.9l7.352,2.422l15.04,4.992l-7.798,21.402l-24.85,13.852l7.242,22.861l-5.268,11.323
		l12.17,4.47l19.643-25.659l19.922-15.332l22.804,21.665l-5.642,22.973L134.149,320.397L134.149,320.397z"/>
</g>
<g>
	<polygon style="fill:#2E3133;" points="299.699,483.243 286.63,459.026 293.243,438.436 277.85,430.159 224.965,439.242 
		192.778,405.676 197.77,388.882 193.116,363.474 236.204,306.294 258.872,312.21 305.544,309.86 330.125,320.899 348.411,311.724 
		374.016,321.984 386.573,315.909 384.929,309.949 366.141,309.491 355.674,295.324 354.957,295.498 352.799,301.476 
		333.107,309.071 315.215,283.768 296.993,280.735 272.23,296.197 239.547,299.254 220.485,297.567 225.951,265.974 
		246.996,269.148 245.361,279.997 234.934,278.423 233.329,287.69 239.519,288.241 268.623,285.517 294.7,269.235 321.531,273.697 
		337.129,295.757 344.179,293.041 346.647,286.218 360.172,282.952 371.776,298.652 393.341,299.177 399.58,321.802 
		374.436,333.972 348.915,323.743 330.386,333.041 303.457,320.952 257.736,323.254 240.543,318.766 204.774,366.234 
		209.037,389.491 205.115,402.691 228.851,427.443 279.724,418.711 306.486,433.101 298.506,457.933 309.356,478.034 	"/>
	<path style="fill:#2E3133;" d="M463.58,359.8l-19.786-9.677l6.039-26.296l18.025,5.427
		c-23.575-59.692-68.293-106.273-126.264-131.407l4.365-10.063c61.821,26.796,109.225,76.874,133.483,141.01l1.26,3.325
		l-9.626,9.564l-13.174-3.973l-1.464,6.382l11.965,5.85L463.58,359.8z"/>
	<polygon style="fill:#2E3133;" points="424.735,413.701 395.96,383.068 371.615,337.075 392.85,332.603 423.521,357.614 
		429.151,373.642 446.584,387.894 439.642,396.385 419.817,380.186 414.193,364.165 389.98,344.417 388.122,344.809 
		404.966,376.632 432.732,406.185 	"/>
	<polygon style="fill:#2E3133;" points="92.982,419.226 84.951,411.748 97.971,397.765 76.662,371.822 98.468,333.222 
		108.022,338.621 89.915,370.673 112.538,398.216 	"/>
	<path style="fill:#2E3133;" d="M38.986,327.332l-10.171-4.114c14.582-36.083,37.335-69.399,65.8-96.346l2.381-2.253l20.544,6.787
		l-10.163,27.878l-17.359,17.06l0.558,17.741l-3.305,7.119l2.767,1.014l17.644-23.037l24.21-18.629l26.243,24.896l-7.549,7.956
		l-19.436-18.44l-15.634,12.032l-21.663,28.285l-21.555-7.852l7.237-15.601l-0.63-19.94l19.018-18.688l5.437-14.922l-3.556-1.178
		C73.572,262.564,52.58,293.699,38.986,327.332z"/>
</g>
<g>
	<polygon style="fill:#13282C;" points="225.664,286.815 222.397,286.523 220.485,297.567 239.547,299.254 272.23,296.197 
		296.993,280.735 312.653,283.341 304.499,271.811 293.514,269.975 268.623,285.517 239.519,288.241 233.329,287.69 
		233.608,286.077 	"/>
	<polygon style="fill:#13282C;" points="251.996,310.415 236.204,306.294 234.721,308.26 244.449,310.792 	"/>
	<polygon style="fill:#13282C;" points="323.016,294.799 333.107,309.071 352.799,301.476 354.601,296.484 346.97,286.139 
		346.647,286.218 344.179,293.041 337.129,295.757 333.571,290.721 	"/>
	<polygon style="fill:#13282C;" points="378.619,309.796 375.603,298.744 371.776,298.652 370.952,297.539 357.064,297.208 
		366.141,309.491 	"/>
	<polygon style="fill:#13282C;" points="388.122,344.809 389.98,344.417 406.326,357.75 404.992,353.943 381.673,334.958 
		371.615,337.075 395.74,382.653 414.874,403.011 428.657,402.043 431.736,407.119 432.732,406.185 404.966,376.632 	"/>
	<path style="fill:#13282C;" d="M93.852,315.277l21.663-28.285l15.634-12.032l19.436,18.44l7.549-7.956l-26.243-24.896
		l-24.21,18.629l-17.644,23.037l-2.767-1.014l3.305-7.119l-0.558-17.741l17.359-17.06l10.163-27.878l-1.764-0.584
		c-4.744,3.558-9.334,7.306-13.788,11.21l-4.068,11.164L78.902,271.88l0.63,19.94l-7.237,15.601L93.852,315.277z"/>
	<polygon style="fill:#13282C;" points="365.507,318.574 348.411,311.724 343.396,314.237 360.369,321.065 	"/>
	<polygon style="fill:#13282C;" points="467.866,351.035 468.401,349.942 463.631,347.612 	"/>
	<polygon style="fill:#13282C;" points="378.214,332.142 377.549,331.599 371.62,332.846 374.436,333.972 	"/>
	<path style="fill:#13282C;" d="M471.058,326.088l-4.682-0.34c0.484,1.172,1.014,2.319,1.482,3.505l-14.884-4.483l-3.302-0.241
		l-4.206,18.312l11.013,1.06l1.423-6.193l13.174,3.973l4.419-4.39C474.099,333.514,472.635,329.772,471.058,326.088z"/>
	<polygon style="fill:#13282C;" points="284.439,433.702 286.001,428.856 270.208,420.342 228.851,427.443 225.782,424.243 
		213.059,426.435 192.873,405.355 192.778,405.676 224.965,439.242 277.85,430.159 	"/>
	<polygon style="fill:#13282C;" points="84.951,411.748 92.982,419.226 112.538,398.216 89.915,370.673 108.022,338.621 
		98.468,333.222 76.662,371.822 97.971,397.765 	"/>
	<polygon style="fill:#13282C;" points="321.961,317.233 305.544,309.86 294.902,310.395 316.383,320.023 	"/>
</g>
<path style="fill:#2E3133;" d="M256,491.159c-59.607,0-116.716-22.031-160.801-62.031c-3.32-3.026-6.728-6.318-10.135-9.787
	c-23.13-23.555-40.817-51.054-52.58-81.743l-0.591-0.865l-0.026-0.73c-1.175-3.095-2.243-6.131-3.177-9.029
	c-8.003-24.033-12.07-49.347-12.07-75.185c0-71.695,31.718-138.985,87.02-184.622l6.981,8.466
	c-52.764,43.543-83.028,107.75-83.028,176.156c0,24.658,3.878,48.804,11.525,71.77c0.927,2.877,1.979,5.857,3.141,8.901l0.248,0.632
	c11.223,29.509,28.173,55.944,50.386,78.561c3.267,3.331,6.525,6.474,9.687,9.357c42.056,38.157,96.543,59.18,153.421,59.18
	c11.543,0,23.181-0.881,34.586-2.614c4.457-0.676,8.637-1.434,12.772-2.324c46.751-9.843,88.614-33.782,121.098-69.235
	c0.98-1.021,1.802-1.969,2.629-2.918c2.074-2.345,3.891-4.454,5.681-6.659c2.058-2.506,4.05-5.051,5.993-7.613
	c9.457-12.631,17.59-26.15,24.143-40.143c2.486-5.312,4.641-10.409,6.584-15.578c9.907-25.923,14.922-53.274,14.922-81.318
	c0-24.863-3.978-49.352-11.835-72.788l10.401-3.487c8.233,24.561,12.406,50.225,12.406,76.275c0,29.389-5.258,58.058-15.631,85.21
	c-2.038,5.412-4.301,10.767-6.912,16.343c-6.871,14.666-15.388,28.833-25.321,42.094c-2.051,2.698-4.124,5.358-6.249,7.946
	c-1.874,2.301-3.791,4.529-5.786,6.781c-1.07,1.226-2.015,2.309-3.031,3.361c-33.943,37.051-77.824,62.139-126.807,72.456
	c-4.337,0.932-8.735,1.733-13.412,2.442C280.284,490.24,268.093,491.159,256,491.159z"/>
<path style="fill:#F95632;" d="M255.992,0c-52.593,0-95.286,42.714-95.286,95.268c0,21.965,7.98,41.608,19.73,58.086
	c75.556,105.9,75.556,105.9,75.556,105.9s0,0,75.569-105.915c11.771-16.481,19.732-36.163,19.732-58.071
	C351.293,42.714,308.641,0,255.992,0z"/>
<path style="fill:#FFFFFF;" d="M259.658,165.688c-35.487,0-64.335-28.877-64.335-64.364c0-35.453,28.851-64.292,64.335-64.292
	c35.471,0,64.343,28.838,64.343,64.292C324.001,136.812,295.13,165.688,259.658,165.688z"/>
<g>
	<path style="fill:#2E3133;" d="M252.319,161.428c-38.5,0-69.824-31.324-69.824-69.829c0-38.49,31.324-69.801,69.824-69.801
		c38.505,0,69.829,31.311,69.829,69.801C322.148,130.104,290.824,161.428,252.319,161.428z M252.319,32.771
		c-32.453,0-58.852,26.391-58.852,58.829c0,32.453,26.401,58.857,58.852,58.857c32.456,0,58.857-26.404,58.857-58.857
		C311.176,59.162,284.772,32.771,252.319,32.771z"/>
	<path style="fill:#2E3133;" d="M261.842,121.864h-8.264c-4.787,0-9.272-1.864-12.628-5.245c-3.361-3.364-5.217-7.849-5.217-12.621
		h10.972c0,1.843,0.717,3.574,2.022,4.882c1.295,1.303,3.016,2.015,4.854,2.015h8.264c1.856,0,3.548-0.707,4.897-2.038
		c1.275-1.283,1.992-3.018,1.992-4.856c0-1.846-0.709-3.564-1.997-4.844c-1.349-1.334-3.041-2.04-4.9-2.04h-8.256
		c-4.756,0-9.236-1.856-12.613-5.228c-3.372-3.361-5.233-7.846-5.233-12.628c0-4.8,1.861-9.293,5.238-12.662
		c3.351-3.318,7.944-5.215,12.608-5.215h8.264c4.682,0,9.149,1.836,12.58,5.171c3.425,3.42,5.281,7.913,5.281,12.703h-10.972
		c0-1.859-0.714-3.594-2.01-4.89c-1.324-1.28-3.067-2.015-4.879-2.015h-8.264c-1.797,0-3.571,0.74-4.872,2.028
		c-1.29,1.28-2.004,3.013-2.004,4.874c0,1.843,0.714,3.569,2.012,4.856c1.311,1.311,3.036,2.028,4.864,2.028h8.256
		c4.746,0,9.224,1.853,12.623,5.215c3.384,3.361,5.248,7.846,5.248,12.639c0,4.762-1.856,9.242-5.22,12.626
		C271.055,120.013,266.58,121.864,261.842,121.864z"/>
	<rect x="252.211" y="56.97" style="fill:#2E3133;" width="10.972" height="9.897"/>
	<rect x="252.211" y="116.378" style="fill:#2E3133;" width="10.972" height="9.889"/>
</g>
<g>
	<path style="fill:#C1CED4;" d="M322.074,28.846c-0.038-0.517-0.056-1.039-0.056-1.559c0-13.947,11.325-25.262,25.27-25.262
		c13.266,0,24.115,10.214,25.183,23.201c1.313-0.422,2.691-0.63,4.147-0.63c3.699,0,7.053,1.446,9.569,3.796
		c2.78-4.035,7.444-6.674,12.708-6.674c8.205,0,14.899,6.382,15.401,14.456c0.737-0.218,1.505-0.338,2.296-0.338
		c4.626,0,8.353,3.756,8.361,8.374c0,4.603-3.75,8.361-8.361,8.361h-93.066c-6.587,0-11.907-5.332-11.907-11.909
		C311.616,34.578,316.173,29.563,322.074,28.846z"/>
	<path style="fill:#C1CED4;" d="M428.106,149.658c-0.934,0-1.828,0.136-2.678,0.451c0.246-1.275,0.376-2.547,0.376-3.86
		c0-11.034-8.932-19.978-19.958-19.978c-11.034,0-19.968,8.95-19.968,19.978c0,0.136,0.015,0.282,0.015,0.435
		c-1.267-0.566-2.65-0.901-4.124-0.901c-5.647,0-10.214,4.582-10.214,10.214c0,5.64,4.572,10.214,10.214,10.214l46.336-0.003
		c4.572,0,8.276-3.72,8.276-8.289C436.383,153.349,432.681,149.658,428.106,149.658z"/>
	<path style="fill:#C1CED4;" d="M176.765,127.557c-0.015,0-0.028,0-0.028,0c0-0.3,0.028-0.62,0.028-0.911
		c0-17.8-14.423-32.225-32.212-32.225c-14.538,0-26.836,9.654-30.828,22.886c-2.422-1.129-5.128-1.787-7.995-1.787
		c-10.363,0-18.775,8.404-18.775,18.765c0,2.406,0.445,4.677,1.262,6.784c-0.21-0.018-0.404-0.033-0.612-0.033
		c-6.651,0-12.037,5.384-12.037,12.037c0,6.651,5.386,12.04,12.037,12.04h89.162c10.36,0,18.765-8.407,18.765-18.788
		C195.528,135.956,187.126,127.557,176.765,127.557z"/>
</g>
<path style="fill:#61462B;" d="M255.99,184.12c-17.091,0-33.743,1.864-49.789,5.343c22.689,31.803,35.041,49.116,41.761,58.534
	l0.059-3.034l28.708-14.776c3.727-5.228,8.12-11.382,13.309-18.657l-5.916,1.229l-14.1-18.729l9.167-8.727
	C271.555,184.553,263.826,184.12,255.99,184.12z"/>
<g>
	<path style="fill:#BC452A;" d="M322.048,26.65c-0.005,0.212-0.033,0.422-0.033,0.637c0,0.522,0.021,1.042,0.056,1.559
		c-5.901,0.717-10.458,5.732-10.458,11.814c0,6.577,5.32,11.909,11.907,11.909h17.649C336.287,42.865,329.8,34.112,322.048,26.65z"
		/>
	<path style="fill:#BC452A;" d="M176.765,127.557c-0.015,0-0.028,0-0.028,0c0-0.3,0.028-0.62,0.028-0.911
		c0-11.868-6.431-22.208-15.977-27.799c0.812,20.521,8.54,38.93,19.648,54.508c2.171,3.041,4.27,5.985,6.318,8.855
		c5.266-3.325,8.773-9.185,8.773-15.885C195.528,135.956,187.126,127.557,176.765,127.557z"/>
</g>
<path style="fill:#2D110A;" d="M195.61,107.302c-1.388-5.002-2.143-10.263-2.143-15.703c0-32.438,26.401-58.829,58.852-58.829
	c11.254,0,21.78,3.18,30.733,8.678c18.877,7.391,33.439,23.434,38.753,43.236c-3.487-35.254-33.318-62.884-69.486-62.884
	c-38.5,0-69.824,31.311-69.824,69.801c0,29.381,18.248,54.561,43.999,64.855C209.436,146.15,197.537,128.151,195.61,107.302z"/>
<g>
</g>
<g>
</g>
<g>
</g>
<g>
</g>
<g>
</g>
<g>
</g>
<g>
</g>
<g>
</g>
<g>
</g>
<g>
</g>
<g>
</g>
<g>
</g>
<g>
</g>
<g>
</g>
<g>
</g>
</svg>
